# xmcd CD database file
#
# Track frame offsets:
#	150
#	16919
#	36056
#	51982
#	68640
#	84682
#	104459
#	120204
#	136786
#	153096
#	166709
#	182953
#	202803
#
# Disc length: 2928 seconds
#
# Revision: 2
# Processed by: cddbd v1.5.2PL0 Copyright (c) Steve Scherf et al.
# Submitted via: CDex 1.78
#
DISCID=990b6e0d
DTITLE=Tyson Colman - From Now On
DYEAR=2014
DGENRE=Country
TTITLE0=Shines Like Gold
TTITLE1=A Certain Touch
TTITLE2=From Now On
TTITLE3=Please Come Home
TTITLE4=A Change Is Coming
TTITLE5=Long Gone
TTITLE6=You Know You Wanna
TTITLE7=Cry Like A Baby
TTITLE8=You're The Reason
TTITLE9=Wild And Free
TTITLE10=Cowgirl
TTITLE11=But I love Him
TTITLE12=I Just Can't Do It
EXTD=YEAR: 2014
EXTT0=
EXTT1=
EXTT2=
EXTT3=
EXTT4=
EXTT5=
EXTT6=
EXTT7=
EXTT8=
EXTT9=
EXTT10=
EXTT11=
EXTT12=
PLAYORDER=
